<svg xmlns="http://www.w3.org/2000/svg" viewBox="0 0 900 350" width="900" height="350" style="width:100%;height:100%"><defs><clipPath id="a"><path d="M0 0h900v350H0z"/></clipPath></defs><g clip-path="url(#a)"><g display="block"><path fill="#3C3C3B" d="M60.25 325.25L127.5 343l63.25-26.25-66.25-11-64.25 19.5zM294.50001526 287.5L202.5 316.16700006 441.25000763 350.125l111.25-25.95800018 132.00000763 10.66600036 14-4.66600036L800.5 341.5l54.66601563-24-336.666008-40-223.99999237 10z" opacity=".1"/><path fill="#C4C4C4" d="M352.50100708 29.50000763l-174.00100708 81 159.00100708 139 550 58.99999237 12.5-296.1439972V.52801515l-547.5 28.97199249z"/><path fill="#65C0D9" d="M352.50100708 29.5L178.5 110.5l173.50100708-51 544.56799316-19.90200043 3.43200684-34.12099838V.52799988L352.50100708 29.5z"/><path fill="#DDDDDB" d="M23.5 315.5l323.99899292-67.00099945 5-218.99900055L.50100708 1.5 23.5 315.5z"/><path fill="#79CFE4" d="M3 40.5l348.83399963 16.66600037.66700745-27.6660002L.50100708 1.5 3 40.5z"/><g><path fill="#47A1BA" d="M679.16700745 282.833992l46.66600036-7.33399963v32L677.16700745 324.833992l-23.33399964-23.99999982 25.33399964-18.00000018z"/><path fill="#65C0D9" d="M629.16700745 306.83300781l-29.33399964-20.66700005 57.33400011-15.33299995 68.6659999 4.66699982-48.66600037 16.66600013-48 14.66700005z"/><path fill="#4091A7" d="M599.83300018 318.83300018v-32.66600036l77.33399964 6v32.66600036l-77.33399964-6z"/><path fill="#47A1BA" d="M608.75001168 293.49998832l-6.49999976 7 8.1239996.37599993-1.62399984-7.37599993zM612.75001192 307.25001168l.49999976 5.62400007 8.12399984-3.00000002-8.6239996-2.62400005zM632.75001171 296.5l-4.6260002 6.125 8.87600041 1.875-4.2500002-8zM651.125 310.24998808l4.125 9.3760004 6.625-5.62600022-10.75-3.75000018zM661.25 303.37598825l6-5.87599993 3.75 7.87599993-9.75-2z"/><path fill="#65C0D9" d="M690.625 292.75l-.375 7.25 7.25-3.125-6.875-4.125zM700.37401152 300.24998808l5.3760002 8.3760004s4.9989998-7.50000023 4.6239998-7.50000023-10-.87600017-10-.87600017zM687.00001168 312.62598825l7.12400007.87400007s-1.625-6.62400007-2-6.62400007-5.12400007 5.75-5.12400007 5.75zM716.25001168 292l-4.75 5.75 7.12400007-1.125-2.37400007-4.625z"/><path fill="#47A1BA" d="M686.37698841 233.46399307l37.45600033-5.88599968v43.34300041l-39.06200028 13.91300011-18.72699928-19.26500034 20.33299923-32.1050005z"/><path fill="#65C0D9" d="M646.24600601 270.38700104l-23.54299927-34.2460003 46.0179987-12.30800056 55.11199856 3.7460003-39.06099892 13.37800025-38.52599907 29.4300003z"/><path fill="#4091A7" d="M622.70299911 280.0170002v-43.87700081l62.0680008 4.81500053v43.87800026l-62.0680008-4.81599998z"/><path fill="#47A1BA" d="M640.333992 281.50000763l6.16600013-43.75 10.58399987-.5 2.38500023 1.68700027.03100014 43.9790001-14.41600037-.58300019-4.75-.83300018z"/><path fill="#79CFE4" d="M680 224.62500572l-33.5 13.125 12.96899986 1.1880002L696 225.62500572l-16-1z"/><path fill="#47A1BA" d="M793.0439806 278.46399307l37.45600033-5.88599968v43.34300041l-39.06200028 13.91300011-18.72699928-19.26500034 20.33299923-32.1050005z"/><path fill="#65C0D9" d="M752.91202164 315.38698578l-23.54400254-34.2460003 46.01800204-12.3069992 55.11400175 3.74599838-39.06200218 13.37700081-38.52599907 29.4300003z"/><path fill="#4091A7" d="M729.36801529 325.01799965v-43.87700081l62.0699997 4.81500053v43.87700081l-62.0699997-4.81500053z"/><path fill="#59AAAB" d="M752.875 282.874012l-.125 44 12.375.87599944 1.625-43.62599945-13.875-1.25z"/><path fill="#77CBCC" d="M749.708992 275.66699219l57.04100037 5.08300018 9.125-3.00000024-51.75-5.91600013-14.41600037 3.83300019z"/><path fill="#95D5D5" d="M789.31299973 269.687006l-36.43899918 13.18799972 13.87599945 1.25 36.125-13.50099993-13.56200027-.9369998z"/><path fill="#59AAAB" d="M806.99999237 324.333992l-.25-43.58399963 9.12499976-3 2.95799995 42.25-11.8329997 4.33399963z"/></g><g><path fill="#3C3C3B" d="M776 205.5l-1.5 37 75 8-5-168.5L776 205.5z" opacity=".1"/><path fill="#77CBCC" d="M762.49999237 82.83299255l-.66699982 152 79.33399964 7.33300019 3.33300018-160.16600037-82 .83300018z"/><path fill="#DDDDDB" d="M775.16700745 98.16700745l-3.33399964 125.66699981 58.33399964 5 1.66600036-131.33399963-56.66600036.66699982z"/><path fill="#77CBCC" d="M784.50000763 110.50000024l37.66600037-.16700006-.16600037 5.83400011-37.16799927.6659999-.33200073-6.33299995zM779.75 195.5l40.5 2.25-.5 7.25-39.66699982-3.16700006L779.75 195.5zM779.5 206.75L820 209l-.5 7.25-39.66699982-3.16700006L779.5 206.75z"/><path fill="#59AAAB" d="M799.16701567 127.83300018l-12.83400023 19.33399964 6 3.8340001-6 11.5 6.16600037 3-6 11.33200026 8.83399963 1.5.5 10.66799927 6.00000018.66600037 1.50000006-11.33399964 12.16600013-.66600036-9.83200026-11.1659999 5.83200026-4.16799998-8.00000024-10.99999976 6.16800046-3.33199978-10.50000036-20.16800022z"/></g><g><path fill="#3A7D8F" d="M100.08399963 302.45800781l-10.16699981-15.83300018 36.167-9.41699982 36.333 9.58300019-24.58300019 21.91699981-37.75-6.25z"/><path fill="#888989" d="M138.458004 257.33399582l-3.50000048 47.25-8.62399983-.37599945-9.00000024-48 21.12400055 1.12599945z"/><path fill="#757778" d="M107.58399963 304.70800781l11.25-8.375-3.875-43.25 8.375-.625 4.02999974 15.54100037.47000026 25.95899963-9.25 11.75-11-1z"/><path fill="#47A1BA" d="M115.33300018 307.20800781l13.25 23.5 26.5-8 5.33399964-25.41699981-32.58399964-3.33300019-12.5 13.25z"/><path fill="#65C0D9" d="M115.33300018 307.20800018l12.75-3.08300018 32.33399964-6.833 2-10.50000018-34.58399964 7.16600012-12.5 13.25000024z"/><path fill="#77CBCC" d="M114.0569954 232.66800499l13.3070011 35.33199882 64.6970005-22.02399826-52.7680006-67.90999984-33.03600025 40.37799883 7.79999924 14.22400045z"/><path fill="#59AAAB" d="M100.7500019 191.8299942l-37.16700172 62.40299988 63.7800026 13.7669983 5.9640007-55.06199838-32.57700157-21.1079998zM114.9739952 122.08599472l18.3539982 90.85199738 59.19099998-32.57899857-50.01399899-50.9319992-27.53099918-7.34099961z"/><path fill="#439698" d="M103.96200132 136.76900482l-39.46099805 54.14499855 68.8259964 22.02499962-5.9639988-64.23899841-23.40099955-11.93099976z"/><path fill="#77CBCC" d="M115.8919983 108.32000256l8.7179985-62.86099911 42.67300033 82.5909996-39.92000007 20.64899826-11.47099877-40.37899875z"/><path fill="#59AAAB" d="M124.61000252 45.45900345l2.75300026 103.23999786-50.01399994-14.22399902 47.26099968-89.01599884z"/><path fill="#4091A7" d="M91.91600037 298.79201126l28.1609993-3.79000091 8.00600051 9.1230011.5 26.58399963-32.5-7.25-4.16699981-24.66699982z"/><path fill="#47A1BA" d="M89.91600037 286.625l37.91699981 7.33299994.25 10.16700006-36.16699981-5.33299994-2-12.16700006z"/><g><path fill="#59AAAB" d="M136.91599643 105.24999762l-.68699991 4.35400009-3.68799997 2.16799997 3.79199982 1.83299995.02100015 4.95900012 3.79099988-3.60500002 4.93799997-.125-2.875-3.50100005 1.66599989-2.87499988-3.47899986-.06100011-3.47899997-3.14700007z"/><path fill="#77CBCC" d="M106.88899899 123.0869975l-3.54800003 2.6159997-4.14600022-1.04799985 1.41100025 3.96899998-3.46799993 3.5430001 5.2299999.09799981 3.60200011 3.37999988.41199995-4.5109998 3.20599985-.87599999-2.43199992-2.48799997-.26699996-4.68299985zM143.70800185 165.33400536l-.5 4.93700015-3.37499976 2.18799997 3.81299996.81200003-.375 4.37600005 3.62499989-3.81299997h5.37499988l-3.25099993-2.6880001 1.5630002-3.68700013-3.43700015 1.25000023-3.43800009-3.37500023z"/><path fill="#59AAAB" d="M109.91600019 178.12500763l-1.41700012 3.66799986-3.8329997 1.91599995 2.74999976.83400005-.25 4.41599977 3.50100005-3.58399987L116.5 187.79300737l-4.41599977-4.41799992 3.24999988-2.08200008h-4.49999994l-.91799998-3.16799974zM150.41599256 221.95799255l-3.16700012 4.58299995-6.49999952 1.0840001 5.58399963 2.33299995-1.66699981 5.16699982 6.24999976-3.33399987 6.91700005 3.66700005-2.91699981-4.75 3.75-2.917-6.6670003-.16599994-1.58299988-5.66700006z"/><path fill="#77CBCC" d="M102.41600037 226.375l1.91699981 5.41700006-4.5 3.08299994 5.91600013-.167 3.41700006 8.667.333-8.167 8.25000018-1-7.00000024-1.75000006 3.91700006-4.16600012-7.41700006 2.16600036L102.41600037 226.375z"/></g></g><g><path fill="#3C3C3B" d="M260.9300003 110.99899292l-58.59899902-8.99200058-9.29499817 67.5909996 67.48999787-6.4659977.40399933-52.13300132z" opacity=".1"/><path fill="#C4C4C4" d="M213.84900236 149.29099464l-5.15299982 6.51799965-4.14500004-.63199997-2.82599973-.42899894.60599994-52.73900032 5.50899985-.90999985 6.0089998 48.19199943z"/><path fill="#CECECD" d="M223.70000553 134.28800297l2.57700062 19.55000019-17.58000088 1.96999931-.85599994-54.70899963 15.8590002 33.18900013z"/><path fill="#EBEBEA" d="M207.84000587 101.09900093l57.54500008.5550003 5.14299965 48.84999848-55.06299973 7.17300034-7.625-56.57799912z"/><path fill="#CECECD" d="M220.85399532 116.85899544l11.11000014-3.33300019 4.92000007 9.04700041-3.80800008 13.65100003 6.9829998-.79400015.1590004 6.8249998-15.07800008 1.42900086-.63600015-8.5720005 5.39700007-9.83999992-1.26900005-3.65100026-7.30200028 1.11100006-.47599984-5.87300014zM257.54600191 114.13199806l-12.88199997.15100003-3.48500013 9.24499988 11.5170002 4.24300008 1.06099987 6.97100015-9.85099984.45499992.55599976 6.56699991 14.7510004-1.56599998 1.2119999-11.972-9.39600015-6.21399987v-3.18200016l8.94199968.45400047-2.42499972-5.15200043z"/></g></g><path fill="#C3997F" d="M413.333992 188.66700745l-21.1679998-8.33300019-19.41599983 3.66600037 3.29899979 16.79399967 16.45100003-4.12699985 19.00000018 5.16699981 1.83399963-13.16699981z" display="block"/><path fill="#59AAAB" d="M328.91098785 150.76400566l-21.89900016 46.44800186 24.6960001-10.77500057 5.6289997-5.39400053-8.42599964-30.27900076zM367.5870142 144.82500267l7.39499998 3.3220005 17.18499994 32.18699932-20.16699981 6.91599942-4.41300011-20.1609993v-22.26399994z" display="block"/><g display="block"><path fill="#439698" d="M367.58700943 214.34299469l-13.50699997 24.37600076-22.63899994 21.26000083-13.1459999-40.97300148 49.29199981-4.66300011z"/><path fill="#59AAAB" d="M367.58701134 214.34200478l5.82699966 9.78199958 6.38100052 30.95300007v15.62099934l-45.51300049-2.04599953-2.8409996-8.67300033 36.1459999-45.63699913z"/><path fill="#439698" d="M334.28199768 268.65198994l45.51300049-13.57499981 1.81900024 18.43799972-47.33200073-4.86299991z"/><path fill="#439698" d="M367.58700943 214.34299946l12.20800018 40.73499965-5.22100007-50.26399993-6.98700011 9.52900028z"/><path fill="#77CBCC" d="M367.58700943 144.82500458l-8.28299904 21.1450014-11.6440003 4.98099996 11.8969996-8.93199921-15.49199962-18.93700218-15.15500069 7.68200111 3.95600129 22.09400082 1.18599891 6.61699986-6.52899933 19.54199958-9.22900009 19.98900223h23.20699978l26.08599949-4.66300202 6.98700142-9.52899932-5.57400131-5.14700127 12.61300087-23.58299923-14.02600098-31.25900173z"/><path fill="#439698" d="M334.05200768 179.47500515l-6.52700043 19.54199982 47.04899978 5.79699993 7.04100037-28.72999954-47.56299972 3.39099979z"/></g><g display="block"><path fill="#4091A7" d="M569.75 292l-10.91699982 18L544.5 308.16699982 525.5 272.5l40.75 1.5 3.5 18z"/><path fill="#3A7D8F" d="M279 283.50000763l.83300018 39.66600037L299 318.8330078l15.5-38.33300018-35.5 3z"/><path fill="#47A1BA" d="M417.16699982 303.49999237l23.33200073 38.5 20.33399963-5.66600037 10-27.5 87.5-21.49999976.5 22.66600013 22.37799836-5.30300045 8.62200164-67.86299992-172.66600036 22.66600037v44z"/><path fill="#4091A7" d="M248.5 250.833992l7.5 68 23.83300018 4.33300019 5.66699982-22 128 14.33300018 3.16699982 22.83399963L440.5 341.99999237l4-76.5-196-14.66600037z"/><path fill="#CECECD" d="M419.5 224l35.75 57.75L605 246l5-26.5-190.5 4.5z"/><path fill="#A4A4A4" d="M314.99999237 230.5l-88.16699982-.5 10.66699982 31.5 217.75 20.25.75-27.75-141-23.5z"/><path fill="#EBEBEA" d="M428.24999237 204.25L226.83299255 230l229.16699982 24 153.99999237-34.5-181.74999237-15.25z"/><path fill="#3C3C3B" fill-opacity=".1" d="M377.8340022 210.50000763l-58.83299893 7.83399963 60.16599893 9.5 57.57499838 6.5-4.24099731-11.16699981-54.66700107-12.66699982z"/></g><g display="block"><path fill="#47A1BA" d="M422.13601398 208.16699982L398.72201348 225.5l26.73800045 4.33300018L451.11001396 224l.5340004-5.791-15.97100067.791-13.5369997-10.83300018z"/><path fill="#65C0D9" d="M469.15999794 222.49999619l-17.5170002-4.29100037-26.18200111 11.62400031 11.28100109 4.50000024 32.41800022-11.83300018z"/></g><g display="block"><path fill="#47A1BA" d="M425.99499297 215.583004l9.6769998 3.41699981 26.57700015-18.24999988-22.53899956-14.25000012-24.58100033-2.54199981-18.88000011 14.75 29.74600005 16.875z"/><path fill="#65C0D9" d="M415.13000107 183.95900726l29.56700134-2.375 36.55400086 16.6670003-19.0010004 2.49999952-47.1200018-16.79199982z"/></g><g display="block"><path fill="#EBEBEA" d="M375.85300446 204.50599337l-23.54100037-10.0580001 42.35400057-5.28100013 38.39400053 7.8200003-19.38300133 11.62000024-37.8239994-4.10100031z"/><path fill="#DDDDDB" d="M387.99100113 209.48599625l13.9499998-8.39799977 31.11799909-4.10099983 2.61300087 22.01299954-36.95100022 6.5-10.72999954-16.01399994z"/><path fill="#CECECD" d="M352.31201363 194.44800377l5.1060009 14.44899952-3.49699974 12.89299953 46.77999878-11.58099961 1.23999977-9.12000012-49.62899971-6.64099932z"/><path fill="#47A1BA" d="M352.31298828 194.447999l1.02099991 27.21800041 45.38800049 3.83399964 1.97900009-15.29200003-16.92100048-2.87500003-31.467-12.88499999z"/><path fill="#65C0D9" d="M352.31298828 194.44800663l48.38800049 15.76099968-18.46500015 4.125-29.92300034-19.88599968z"/></g><g display="block"><path fill="#C3997F" d="M355.50000763 209.2500074l5.00000018-5.99999977 8.16600019 8.74999976-5.08400012 5.83399987-10.58200025-1.625 2.5-6.95899987z"/><path fill="#DEBDA6" d="M360.5 203.25000381l-12.25-1.75-5.25 1-2 6.2500001 12 7.45800009 3.40299988-5.87900007L360.5 203.25000381z"/><g><path fill="#C3997F" d="M348.25001144 201.5l-16.45299959-15.25-24.78499937 10.96200001L341.0000124 208.75l7.24999904-7.25z"/></g></g><g display="block"><path fill="#FFFEFF" d="M367.5870123 144.82500744l-26.08500005-.61800003v30.17000007l17.80300021-8.40700006 19.73100019 4.36799955-11.44900036-25.51299953z"/><path fill="#585B5B" d="M411.33700848 82.04699802l13.15199947 13.56499972-16.12199974 13.62699972-.16399956-13.98699972 3.13399983-13.20499972z"/><path fill="#77CBCC" d="M341.08900452 65.3720007L336.07300568 59.217l-4.29500008-14.82399987 57.4659996-10.8130002 1.2649994 14.89100038-1.84899903 10.90599955-25.95300019 6.90300083-21.61800086-.908z"/><path fill="#95D5D5" d="M389.2429905 33.57999992l32.46500015 23.57399923-10.37200022 24.89399928-13.85599995-10.17199898-8.82000017-12.50000024.58300018-25.79599929z"/><path fill="#439698" d="M331.777987 44.39200115l-4.17999983 31.72599983 8.6329999-4.45499992 4.8579998-6.29099989-9.31099987-20.98000002z"/><path fill="#3A7D8F" d="M389.12600565 38.81200123l-2.27700007.35500002-.29099995 6.20800018-5.45500022.81599999-.18799973 4.1170001 5.64199996-.73300004-.11300003 5.7190001 2.31199992-.217 1.75300002-6.6060002-1.3829999-9.65900015z"/><path fill="#4091A7" d="M389.12500978 38.81200218l2.166 1.78899956-.02000004 5.35100007 4.49299997 3.63800001-.90999984 3.523-3.71200013-2.842-.23599995 6.10499954-2.14999997-1.29899979.36899996-16.26499939z"/><path fill="#DEBDA6" d="M411.33600235 82.04699898l-6.93899918 63.51099968-31.63800096-2.33600045-20.08099985 6.25800133-14.57499981-19.6050005-13.19799996-20.51900052 13.25099945-3.66400004 2.20800019 4.10700035 17.80099964-25.14799976 11.49700034-3.65799904 13.73699987-2.57900238 27.93700027 3.63300133z"/><path fill="#C3997F" d="M358.16500378 84.65099716l-5.68200016 57.55200005 20.27599907 1.019001-7.48399926 4.35899926.64599991 6.50099945-6.61600017 11.88700104-17.8039999-21.76200104-8.39799977-18.16099936-1.02499962-5.29500002-2.7300005-2.45499992-6.67600059-13.78300095 14.07600022-7.13999939 2.5020008 13.45499993 6.71499956-10.52599907 12.2000004-15.65100098zM402.40699768 96.94099903l-14.93099904 12.83799934-7.14199996 5.94500065-12.06899929-21.30400085 34.1419983 2.52100086z"/><path fill="#E8CAB8" d="M382.14100432 95.39699745l-1.80699992 20.32800007 6.5869999.63600063 1.72900009-20.50400066-6.50900007-.46000004z"/><path fill="#8E6C5A" d="M386.92101407 116.3599974l-3.7849999 3.59200012-2.802-4.22800017 6.5869999.63600004zM372.75899124 143.22100258l-6.8369999 10.86000013-19.26099967-13.1999998 26.09799957 2.33999967zM337.9960041 115.36100197l-4.89199996 10.68799972-3.75399994-7.74899983 8.6459999-2.9389999zM335.9859953 112.88599968l-2.4300002-8.13199997-6.30200016 1.93300009 8.73200035 6.19899988z"/><path fill="#585B5B" d="M380.47301102 83.55900002l6.54700088-11.50999988 1.6399994-12.67299974-47.57199956 5.99599982-26.98699856 21.33999967 22.13399887.10599995 21.92999983-2.16699982 9.6859994-.47399997 12.62199974-.61800003z"/><path fill="#3C3C3B" d="M358.1649952 84.65200043l-18.54599953 27.75-3.69600006-11.55200005-13.25100045 3.66400004-8.57099914-17.80100012 44.06399917-2.06099987z"/><path fill="#757778" d="M388.6599989 59.37600231l22.67700004 22.67199993-30.86400032 1.51200009 8.18700027-24.18400002z"/><path fill="#585B5B" d="M382.14099836 95.39700365l.37699986-4.50199985-14.25199986 3.5259999 13.875.97599995zM388.65001535 95.85599673l13.75699997 1.08499992-13.25-5.39799977-.50699997 4.31299985z"/><path fill="#337B7D" d="M375.37201452 126.84899774l7.47199989-2.5099999 6.67599988 3.57499993-7.2679999 2.28299987-6.87999987-3.3479999z"/><path fill="#59AAAB" d="M370.05700493 124.85299444l12.11499971 8.92499972 12.39200026-6.987-12.14500026 2.7030001-12.36199971-4.64099982z"/><path fill="#3C3C3B" d="M377.62400222 104.64599866c-.39400006 1.65899998-2.05800003 2.68400007-3.71600002 2.29099995-1.65899998-.39499999-2.68400008-2.05799997-2.29099995-3.71699995.39400005-1.65800005 2.05799997-2.68400008 3.71599996-2.29000002 1.65900004.39300012 2.68500006 2.05700004 2.291 3.71600002zM397.0560019 106.08500165c-.39400005 1.65899998-2.05899995 2.68400007-3.71799993 2.29099995-1.658-.39499998-2.68400002-2.05799997-2.28999997-3.71699995.39400006-1.65800005 2.05799997-2.68400008 3.71599997-2.29000002 1.65900003.39300012 2.68599999 2.05700004 2.29199993 3.71600002z"/></g><g display="block"><path fill="#EBEBEA" d="M496.50000763 43.5l119.5-23.5 83 27.5 25.33300018 80.66699982L639.50000763 187.5 534.3330078 170.66699982l-64.5-49L496.50000763 43.5zM457.50000763 140.7499926l7.75000018-5.75000023 8.74999982 3.5.25 10.75-10.99999976 2.91699982-6.58399987-3.83399964.83399963-7.58299994zM435.954988 140.0160036l6.82000017 3.05999971.94899989 7.23900009-7.30800003 3.60099983-5.33199984-3.99999976-.57000017-7.59099985 5.44099998-2.30900001zM418.48400426 135.79299688l.71099973 4.73599995-3.57399983 3.01699984-4.46999985-2.69199992.31099987-4.26099991 3.89499997-2.93299985 3.1270001 2.1329999z"/></g><path fill="#DDDDDB" d="M533.25 160l22.25-13.83300018L692.75 150.25l-52.9790001 37.33300018L555.5 174.125 533.25 160z" display="block"/><g display="block"><path fill="#585B5B" d="M626.99999237 162.66700745l-11 4.16699981-2.16699982 16.66600037 13.83399964 2.16699982 4.08300018-10.917-4.75-12.083z"/><path fill="#757778" d="M645.125 149.99999237l-13.95799994-7.83300018L616 166.83299255l15.75 7.91699982 19.25-11.875-5.875-12.875zM644.74997759 172.50000334l-2 4.37600016 2.34399986 7.00000024 7.46099997-5.2810002-7.80499983-6.0950002z"/><path fill="#888989" d="M643.33300209 152.333004l-4.5 9.33299994 3.91700077 15.20899987 9.8049996 1.71899987 9.53400015-6.70199967 2.45800018-21.58399963-21.2140007 2.02499962z"/><path fill="#585B5B" d="M639.50000763 134.33300018l-8.33399963 7.83399964 7.6659994 19.5 25.66800023-11.49999976-25-15.83399988z"/></g><g display="block"><path fill="#4091A7" d="M606.5 61.08300018l12.33300018 8.33399988L614.75 76.16699982 598 69.58299994l-3.83300018-9.74999976 12.33300018 1.25z"/><path fill="#65C0D9" d="M638.08300018 53.24999952l2-7.1670003L614 45.5l-19.83300018 14.3329997 17.75 9.83499957 26.16600036-16.41799975z"/><path fill="#8E6C5A" d="M624.33300781 77.66600037l-3.16599989-1.83200026L619.08300782 70.084l9.08399998-6.74999988 7.66600001-2.25000048-7.916 14.33200026-3.584 2.25000048z"/><path fill="#47A1BA" d="M614.75000763 76.16600037l16.37500024-12.6670003 14.12499976-9.33300018-5.16800022-8.08200026L611.916008 69.66600037l2.83399963 6.5z"/><path fill="#C3997F" d="M641.75000763 116.75l-15.25-16.125-5.33399963-24.79199982L630.25000787 74.25l14.99999976 28.125-3.5 14.375z"/><path fill="#59AAAB" d="M636.24998832 118l-9.74999976-17.375 4.16699981-2.29199982L644.49998807 96.5l9.37599994 14.25-17.6259997 7.25z"/><path fill="#DEBDA6" d="M624.83300781 75.3329997l5.41700006-1.08199977 1.58299994-5.8350001-5.5-8.4149999-2.25 1.75 2.75 5.6649999-2.75 5.50000006.75 2.41699982z"/><path fill="#DDDDDB" d="M612.87500787 49.95800018l14.99999976.95899964-11.58399987 9.375-13.99999976-3.45899988 10.58399987-6.87499976z"/><path fill="#47A1BA" d="M601 57.95799994l13.41699982 4.25L612.25 64.33399987l-12.41699982-5.54200005L601 57.95799994z"/></g><g display="block"><path fill="#C3997F" d="M674.50001168 157l-3 2.75-1.5 6.5 7.00000024-4.875.1239996-5.75-4.1239998-3.625-4.4999998 3.875.87399983 2.25 5.12599993-1.125z"/><path fill="#DEBDA6" d="M675.87401172 149.37600374l-2.87400004 2.62399984-1.49999976 7.74999976s5.12499982 1.7510004 5.49999976 1.6260004c.375-.125 3.12399984-2.25000024 3.12399984-2.25000024l-.37399984-4.75-3.87599996-4.99999976z"/><path fill="#C3997F" d="M677.50001168 130.00000381l10.00000024 5.16799975-7.7500002 19.2079997-6.7499998-2.37599945-.3760004-14.25000047 4.87600016-7.74999953z"/><path fill="#439698" d="M660.666008 126.3339994l15.8329997-8.83299995 11.00000048 17.66599989-14.87500036 2.58400011L660.666008 126.3339994z"/></g><g display="block"><path fill="#59AAAB" d="M640.99999619 114.99999237l-7.125 6.25-2.70800019 20.91699982 33.33300019 8 7.625-19.66699958-31.125-15.50000024z"/><path fill="#77CBCC" d="M649.12598848 106.25L643.87598801 99l-2.75 1.625-7.25 20.625 38.25 9.25 4.37400055-13-5.37400055-5.875-21.99999953-5.375z"/></g><g display="block"><path fill="#515152" d="M670.18798828 65.2499981l9.06299997-2.625 5.43700003 15.12500023-1.25 4.37499976-13.9369998 5.56200028-3.3130002-18.49900008 4-3.9380002z"/><path fill="#8E6C5A" d="M671.37500596 91.62600353l6.625 3.8739998 1.74999976-4.2499998-2.62499976-4.37399979-6.81299996.1239996 1.06299996 4.6260002z"/><path fill="#C3997F" d="M671.12500572 87.49999642l3.50000024 1.75 5.125 2.00000024 3.68700004-9.12600016-6.93700016-2.25000024-.75 3.75000024-4.62500012 3.87599992z"/><path fill="#C3997F" d="M652.74998856 107.49999619l-2.12400055 5.125 20.50000047-1 6.87400008-16.125-3.37400055-6.24999989 1.12400055-5.62500011-3.06300068-.93700028.56300068-8.06299972-4.08300019-4.79199982-20.79100036 8.91699982 4.37400055 28.75z"/><path fill="#8E6C5A" d="M641.62500763 97.99999666l-10.95899963.3329997 14.58399963 4.04100014 5.37500024 10.24999976 17.87499976-7.1239998-4.66800022-2.00000004-22.20699978-5.49999976z"/><path fill="#585B5B" d="M651.874012 57.37400031l.87599944-.62399983L663.75001168 52l15.49999976 10.62400031-10.08399963 7.20899987-17.16600037.79100037-.12599945-13.25000024z"/><path fill="#757778" d="M643.75 60.12599972l1-6.7499998L663.75 52l-13.125 16.87599945-6.875-8.74999973z"/><path fill="#585B5B" d="M637.87500381 68.25000048l-6.75-4.75000024 13.625-10.12600017 6.08300019 10.45900011-12.95800019 4.4170003z"/><path fill="#515152" d="M649.75000381 68l-16.375 7.75-2.25-12.25 19.70800019.33300018L649.7500038 68z"/><path fill="#DEBDA6" d="M634.66699219 65.83300018l-4 32.50099945 33.16600036 5.16699982 5.33399964-33.66799927-18.334-6-16.166 2z"/><path fill="#C3997F" d="M642.71898556 71.96900225l.46899986-.46899987-4.65600014.71899987 7.14599991 12.35099983 3.66600019-2.97599983 1.67799997 4.36999988 10.91600007-9.83899998-3.125-1.87499977-4.28100014.15700007-2.81399989 3.8899998-4.15499997 3.2660001-.569-3.88600004-1.056-4.2390002-3.21899986-1.46899986z"/><path fill="#8E6C5A" d="M645.67797565 84.56899804l2.39999992 2.63400012 2.94399995-1.24000013-2.09099996-3.0200001-3.2529999 1.6260001z"/><path fill="#E8CAB8" d="M646.99399805 77.67699957c-.07700002.23200011-1.31599998 6.8920002-1.31599998 6.8920002l5.34299993 1.39400005.69700003-7.66600013-4.72399998-.62000012z"/><path fill="#8E6C5A" d="M641.88299608 88.05400014l12.52600003 1.97500014-7.14300001 5.30500007-5.38300002-7.28000021z"/><path fill="#FFFEFF" d="M643.6060028 89.04199755l8.94400025 1.39400001-1.9940002 1.142-5.61399984-.736-1.3360002-1.8z"/><path fill="#3C3C3B" d="M643.99297655 77.36699622c0 .96200002-.77899999 1.74299998-1.74199999 1.74299998-.96200001 0-1.74199998-.78099996-1.74199998-1.74299998 0-.962.77999997-1.74099999 1.74199998-1.74099999.963 0 1.74199999.77899999 1.74199999 1.74099999zM658.8040117 79.10900116c0 .96200001-.77999997 1.74199998-1.74199998 1.74199998-.963 0-1.74199999-.77999997-1.74199999-1.74199998 0-.96200001.77899999-1.74199998 1.74199999-1.74199998.96200001 0 1.74199998.77999997 1.74199998 1.74199998z"/><path fill="#585B5B" d="M646.3129971 71.00000358l-7.53200006-.31200004-.25 1.531 7.40700006 1.219.375-2.43799996zM655.00000286 72.031003l-.46899986 2.37499994 7.4059999 1.71899992.18799996-1.65599993-7.125-2.43799993z"/><path fill="#8E6C5A" d="M679.99999416 83.875l-1.75-.625-.56299997 3.25 2.31299997-2.625z"/></g><g display="block"><path fill="#59AAAB" d="M590.99999237 77.33300018l22.33300018 9.49999976-7.66600036 12.33399988-25.66699982 4.5 11-26.33399964z"/><path fill="#614A43" d="M570.81299412 100.875l2.56200004-3L579.187994 91.5l-13.68799972-6.625 1.56299972 13 3.75000012 3z"/><path fill="#77CBCC" d="M567.83300018 72l-3.16600036-6.5 29.5-5.66699982 19.16600036 27L588.5 96.16699982 567.83300018 72z"/><path fill="#846558" d="M565.25 94.75000381l-6.625 21.12599993 2 10.24999953 10.75-3.62599946 2-24.62400054-8.125-3.12599946z"/><path fill="#47A1BA" d="M541.49998856 134.87499237l4.25-12 12.87599969-7.375 12.74999976 7-15.87599975 23.66699982-13.9999997-11.29199982z"/><path fill="#439698" d="M559 74.5l21 29.16799927 8.5-7.5L564.66699982 65.5 559 74.5z"/><path fill="#A38274" d="M568.93800783 96.23399734l-3.68800002-1.4840002-4.75000018-8.7500002 7.16600013-9.83400039 2.00000024 2.50000048-3.00000024 5.5 2.83399987 5.33399987-.5619998 6.73400044z"/><path fill="#DDDDDB" d="M578.375988 73.37500334l11.25000025 16.0619998 16.3740003-6.37299967-11.8740003-14.62499953-15.75000024 4.9359994z"/><path fill="#59AAAB" d="M576.28100586 68.84399998l3.375-.99999998.8440001-1.93799998 6-1.40600002 1.7809999 1 3.3130002-.56200004.6869998 1.68700004-14.90600014 4.125-1.09399986-1.90600002z"/></g><g display="block"><path fill="#47A1BA" d="M520.74998856 134.875l-13.62400008-.625-5.50000047 11.75 15.25000047 11.75 3.87400008-22.875zM545.49998856 142.833004l10 3.33300018v27.95899963l-21.58300019-3.25-17.04100036-13.12499988 28.62400055-14.91699993z"/><path fill="#65C0D9" d="M545.75001144 122.87399673l-31.28700065 5.8569994-6.8389988 5.51900053 9.25 23.49999953 38.62599945-11.58299971-9.75-23.29299975z"/></g><g display="block"><path fill="#585B5B" d="M503.0440071 79.2850008l-13.58899955 3.76900005 8.67899943 18.8409996 19.41299963 5.59599973-4.11099911-24.77999974-10.3920004-3.42599964z"/><path fill="#515152" d="M506.92698526 68.43700123l-11.87599992 6.50899958-5.59600068 8.10800004 19.52800072 6.3949995 20.78200066-11.7619996-22.83800078-9.24999952z"/><path fill="#585B5B" d="M537.5310154 62.612998l-4.68300057-3.65400027-26.6069994 1.37000036-11.18999958 14.6170001 21.9469998 1.51900006L537.5310154 62.612998z"/><path fill="#757778" d="M544.72497654 72.6619978l5.25399876-9.70699978-17.12999922-3.9960003-15.85099978 17.50600053 27.72700024-3.80300045z"/><path fill="#585B5B" d="M543.58300042 76.54399681l6.5940001-5.523-.19799995-8.06599975-7.88000012 3.6539998 1.25500012 10.39199973"/><path fill="#614A43" d="M511.03798723 117.08400154l-2.51299993 1.82700014-3.4240001-5.0240001 6.62200021-6.77600009-.68500018 9.97300005z"/><path fill="#846558" d="M525.42602825 80.31300163l-8.42899993-3.84799957-8.01500031 12.9829998 2.2840004 12.10500002-2.5130005 1.142-3.19699954-4.56800012-7.42300034 3.76900018 6.96600056 11.98999965 4.11099958-1.82699967-.68499994 6.85200024 5.9380002 9.82000065 21.41100073.68599891-10.4480009-49.10400009z"/><path fill="#614A43" d="M536.1609888 110.46000385l-7.75699996 9.29199969-8.00199986 3.95500005 15.47299958 5.70899964 4.625-18.4989996-4.33899975-.45699978z"/><path fill="#A38274" d="M550.17699242 71.02199936l9.6590004 37.53600025-31.43200017 11.1939993-11.40600109-43.28699876 25.10100055-9.85499954 8.0780003 4.41199875z"/><path fill="#846558" d="M529.40100956 84.22299957l-3.76099968 2.01000011 7.10999966 2.70999992 5.70500028 5.69100022 2.347-2.98300027 3.20099998 1.875.5840001-5.36799992 3.5420003-6.52500021-3.89400053-.84899998-3.38399982 2.39000035-.1400001 1.96699977-2.352 4.66900014-1.89799998-3.02200007-2.41199997-2.17599988-4.64800024-.38900018z"/><path fill="#614A43" d="M539.79800391 91.1600008l-1.34299993 3.4740001 3.61299991 2.03600013 1.93499995-3.14400011-4.20499993-2.36600012z"/><path fill="#AB8F84" d="M540.71101806 85.14100027l3.29200008 8.38600016-5.5480001 1.10800028-1.99499988-7.84700013 4.2509999-1.6470003z"/><path fill="#3C3C3B" d="M533.572021 89.23599762c.033 1.042-.78499996 1.91500002-1.827 1.94800001-1.043.033-1.91499998-.78499997-1.94799997-1.82700001-.03400004-1.043.78499997-1.91499997 1.82699997-1.94900001 1.04299998-.033 1.91500002.78499996 1.948 1.82800001zM548.12001812 85.8640036c.033 1.042-.78500008 1.91500002-1.82700005 1.94800001-1.04300001.033-1.91500005-.78499996-1.94800004-1.827-.03499997-1.043.783-1.91499998 1.82600004-1.94900002 1.04299998-.033 1.91599994.78499997 1.94900005 1.82800001z"/><path fill="#614A43" d="M535.4129901 101.35999674l12.90400028-3.84299988-.41400004 6.4109999-7.11500013 2.53899991-5.37500012-5.10699993z"/><path fill="#FFFEFF" d="M537.78700829 101.93899637l9.36800003-3.02399998-.1290002 2.11900001-7.85899972 2.45300001-1.38000011-1.54800004z"/><path fill="#585B5B" d="M533.22601461 82.0219984l-7.99499988 2.30599996.40999985 1.90599994 8.40899992-1.62099993-.82399989-2.59099996zM547.458004 79.73600185l-7.13000012.70700002.52399993 2.73099994 7.27800012-1.54099998-.67199993-1.89699998z"/><path fill="#614A43" d="M502.13101363 104.02699828l2.85300005-1.5610001 2.11300003 5.10200023-4.96600008-3.54100013z"/></g></g></svg>